<svg xmlns="http://www.w3.org/2000/svg" viewBox="0 0 512 512" fill="currentColor">
  <!-- Brain outline -->
  <path d="M184 0c-17.7 0-32 14.3-32 32s14.3 32 32 32c0 17.7-14.3 32-32 32H96c-17.7 0-32 14.3-32 32s14.3 32 32 32c-17.7 0-32 14.3-32 32s14.3 32 32 32c-17.7 0-32 14.3-32 32s14.3 32 32 32v64c0 35.3 28.7 64 64 64h32c17.7 0 32-14.3 32-32V96c0-17.7-14.3-32-32-32s-32-14.3-32-32c0-17.7 14.3-32 32-32h40z" opacity="0.4"/>
  <path d="M328 0c17.7 0 32 14.3 32 32s-14.3 32-32 32c0 17.7 14.3 32 32 32h56c17.7 0 32 14.3 32 32s-14.3 32-32 32c17.7 0 32 14.3 32 32s-14.3 32-32 32c17.7 0 32 14.3 32 32s-14.3 32-32 32v64c0 35.3-28.7 64-64 64h-32c-17.7 0-32-14.3-32-32V96c0-17.7 14.3-32 32-32s32-14.3 32-32c0-17.7-14.3-32-32-32h-40z" opacity="0.4"/>

  <!-- Neural connections -->
  <circle cx="190" cy="180" r="18"/>
  <circle cx="256" cy="160" r="18"/>
  <circle cx="322" cy="180" r="18"/>

  <circle cx="190" cy="256" r="18"/>
  <circle cx="256" cy="240" r="18"/>
  <circle cx="322" cy="256" r="18"/>

  <circle cx="190" cy="332" r="18"/>
  <circle cx="256" cy="320" r="18"/>
  <circle cx="322" cy="332" r="18"/>

  <!-- Connection lines -->
  <line x1="190" y1="180" x2="256" y2="160" stroke="currentColor" stroke-width="3" opacity="0.5"/>
  <line x1="256" y1="160" x2="322" y2="180" stroke="currentColor" stroke-width="3" opacity="0.5"/>
  <line x1="190" y1="256" x2="256" y2="240" stroke="currentColor" stroke-width="3" opacity="0.5"/>
  <line x1="256" y1="240" x2="322" y2="256" stroke="currentColor" stroke-width="3" opacity="0.5"/>
  <line x1="190" y1="332" x2="256" y2="320" stroke="currentColor" stroke-width="3" opacity="0.5"/>
  <line x1="256" y1="320" x2="322" y2="332" stroke="currentColor" stroke-width="3" opacity="0.5"/>

  <line x1="190" y1="180" x2="190" y2="256" stroke="currentColor" stroke-width="3" opacity="0.5"/>
  <line x1="256" y1="160" x2="256" y2="240" stroke="currentColor" stroke-width="3" opacity="0.5"/>
  <line x1="322" y1="180" x2="322" y2="256" stroke="currentColor" stroke-width="3" opacity="0.5"/>

  <line x1="190" y1="256" x2="190" y2="332" stroke="currentColor" stroke-width="3" opacity="0.5"/>
  <line x1="256" y1="240" x2="256" y2="320" stroke="currentColor" stroke-width="3" opacity="0.5"/>
  <line x1="322" y1="256" x2="322" y2="332" stroke="currentColor" stroke-width="3" opacity="0.5"/>
</svg>
