<svg xmlns="http://www.w3.org/2000/svg" viewBox="0 0 512 512" fill="currentColor">
  <!-- Gear 1 -->
  <path d="M256 120c-13.3 0-24-10.7-24-24V24c0-13.3 10.7-24 24-24s24 10.7 24 24v72c0 13.3-10.7 24-24 24z"/>
  <path d="M256 512c-13.3 0-24-10.7-24-24v-72c0-13.3 10.7-24 24-24s24 10.7 24 24v72c0 13.3-10.7 24-24 24z"/>
  <path d="M392 280h72c13.3 0 24 10.7 24 24s-10.7 24-24 24h-72c-13.3 0-24-10.7-24-24s10.7-24 24-24z"/>
  <path d="M120 280H48c-13.3 0-24 10.7-24 24s10.7 24 24 24h72c13.3 0 24-10.7 24-24s-10.7-24-24-24z"/>

  <!-- Central Circle -->
  <circle cx="256" cy="256" r="80" opacity="0.3"/>
  <circle cx="256" cy="256" r="50"/>

  <!-- Workflow Arrows -->
  <path d="M180 180l-30-30c-9.4-9.4-24.6-9.4-33.9 0s-9.4 24.6 0 33.9l30 30c9.4 9.4 24.6 9.4 33.9 0 9.3-9.4 9.3-24.6 0-33.9z" opacity="0.6"/>
  <path d="M332 332l30 30c9.4 9.4 24.6 9.4 33.9 0s9.4-24.6 0-33.9l-30-30c-9.4-9.4-24.6-9.4-33.9 0-9.3 9.4-9.3 24.6 0 33.9z" opacity="0.6"/>

  <!-- Connection nodes -->
  <circle cx="140" cy="140" r="20" opacity="0.7"/>
  <circle cx="372" cy="372" r="20" opacity="0.7"/>
  <circle cx="140" cy="372" r="20" opacity="0.7"/>
  <circle cx="372" cy="140" r="20" opacity="0.7"/>
</svg>
